<svg id="Layer_3" data-name="Layer 3" xmlns="http://www.w3.org/2000/svg" viewBox="0 0 1098.11 993.77"><title>RVL</title><path d="M214.36,523.56C251.13,364.61,524.13,155.93,665,171c12.81,2.83,66.84,6.47,65.76,105.65-12.94,110-143.39,296.47-223.16,384.88-10.14,20.45-21,45.57-12.94,52.83,11.62,10.41,46.3-5.55,66.84-29.11C629.19,607.65,958,191.51,687.64,117.12,555.88,85.86,221.91,264.82,174.47,519.25c-4.31,42,24.8,71.69,56.06,46.36C243.47,540.27,208.43,553.21,214.36,523.56Z" transform="translate(-50.95 -113.58)"/><path d="M428.67,244.34c-9.74,1.67-13.88,24-16.17,42-6.47,61.45,42.58,747.11,104.57,793.47,23.72-32.34-.71-277.19-7.55-349.3C479.85,417.3,479.89,255.12,428.67,244.34Z" transform="translate(-50.95 -113.58)"/><path d="M1147.75,780.14c-5.66-5.26-25.88,18.26-76.54,44.2-28.12,14.4-78.77,39.7-143.39,42-53.65,1.94-94-12.78-124-23.72-27.71-10.11-61.6-30.82-129.37-72.23-62.35-38.1-121.28-89.72-146.62-103.5-13.44-7.31-29-15.75-38.81-9.7-12.33,7.56-18.06,39.63-3.23,53.9,290,284.61,474.36,254.43,582.16,179C1123.93,849.83,1156.08,787.89,1147.75,780.14Z" transform="translate(-50.95 -113.58)"/><path d="M985,566.14C792.72,572.61,696,844.83,739.16,1032.41c15.7,34,44.48,74.51,57.14,70.08,11.52-4,5.49-49.59,5.39-65.76C773.65,827.58,850.2,663.71,985,566.14Z" transform="translate(-50.95 -113.58)"/><path d="M139.74,650.92c104.57-7.7,459.26,295.24,633.91,391.19,16.66,9.15,33.4,50.11,22.64,60.37-21.93,20.92-119.8-29.53-195.13-78.7C487.06,949.31,185,686.35,112.79,711.15,102,723.4,77.21,766.13,116,857.76c-8.06,4.82-29.09-12.54-41-28C48.39,795,17.92,655.18,139.74,650.92Z" transform="translate(-50.95 -113.58)"/><path d="M457.78,676.65c-14.71-3.13-45.22,39.24-34.73,74.53,7.27,24.48,30.75,35,43.35,29C488.31,769.7,478.94,681.16,457.78,676.65Z" transform="translate(-50.95 -113.58)"/></svg>